<mxfile host="app.diagrams.net" modified="2023-09-06T16:14:09.793Z" agent="Mozilla/5.0 (Windows NT 10.0; Win64; x64) AppleWebKit/537.36 (KHTML, like Gecko) Chrome/116.0.0.0 Safari/537.36" etag="5ULcS8IgW7nGV0G9xVGT" version="21.6.8" type="device">
  <diagram name="Page-1" id="xLf3p1US9XajRgE2zb_E">
    <mxGraphModel dx="1562" dy="853" grid="1" gridSize="10" guides="1" tooltips="1" connect="1" arrows="1" fold="1" page="1" pageScale="1" pageWidth="850" pageHeight="1100" math="0" shadow="0">
      <root>
        <mxCell id="0" />
        <mxCell id="1" parent="0" />
        <mxCell id="iHH--SFFiVrPq8WFX1FL-33" style="edgeStyle=orthogonalEdgeStyle;rounded=0;orthogonalLoop=1;jettySize=auto;html=1;exitX=0.5;exitY=1;exitDx=0;exitDy=0;entryX=0;entryY=0.5;entryDx=0;entryDy=0;" edge="1" parent="1" source="iHH--SFFiVrPq8WFX1FL-1" target="iHH--SFFiVrPq8WFX1FL-8">
          <mxGeometry relative="1" as="geometry" />
        </mxCell>
        <mxCell id="iHH--SFFiVrPq8WFX1FL-34" style="edgeStyle=orthogonalEdgeStyle;rounded=0;orthogonalLoop=1;jettySize=auto;html=1;entryX=0.5;entryY=0;entryDx=0;entryDy=0;" edge="1" parent="1" target="iHH--SFFiVrPq8WFX1FL-5">
          <mxGeometry relative="1" as="geometry">
            <mxPoint x="300" y="210" as="sourcePoint" />
            <Array as="points">
              <mxPoint x="300" y="240" />
              <mxPoint x="440" y="240" />
            </Array>
          </mxGeometry>
        </mxCell>
        <mxCell id="iHH--SFFiVrPq8WFX1FL-38" style="edgeStyle=orthogonalEdgeStyle;rounded=0;orthogonalLoop=1;jettySize=auto;html=1;exitX=0.75;exitY=1;exitDx=0;exitDy=0;exitPerimeter=0;entryX=0.5;entryY=0;entryDx=0;entryDy=0;" edge="1" parent="1" source="iHH--SFFiVrPq8WFX1FL-1" target="iHH--SFFiVrPq8WFX1FL-7">
          <mxGeometry relative="1" as="geometry">
            <Array as="points">
              <mxPoint x="310" y="230" />
              <mxPoint x="548" y="230" />
            </Array>
          </mxGeometry>
        </mxCell>
        <mxCell id="iHH--SFFiVrPq8WFX1FL-41" style="edgeStyle=orthogonalEdgeStyle;rounded=0;orthogonalLoop=1;jettySize=auto;html=1;exitX=0;exitY=0.5;exitDx=0;exitDy=0;exitPerimeter=0;entryX=0.5;entryY=0;entryDx=0;entryDy=0;" edge="1" parent="1" source="iHH--SFFiVrPq8WFX1FL-1" target="iHH--SFFiVrPq8WFX1FL-10">
          <mxGeometry relative="1" as="geometry" />
        </mxCell>
        <mxCell id="iHH--SFFiVrPq8WFX1FL-1" value="Control Unit" style="whiteSpace=wrap;html=1;aspect=fixed;points=[[0,0,0,0,0],[0,0.11,0,0,0],[0,0.22,0,0,0],[0,0.25,0,0,0],[0,0.33,0,0,0],[0,0.44,0,0,0],[0,0.5,0,0,0],[0,0.56,0,0,0],[0,0.67,0,0,0],[0,0.75,0,0,0],[0,0.78,0,0,0],[0,0.89,0,0,0],[0,1,0,0,0],[0.11,1,0,0,0],[0.22,1,0,0,0],[0.25,0,0,0,0],[0.25,1,0,0,0],[0.33,1,0,0,0],[0.44,1,0,0,0],[0.5,0,0,0,0],[0.5,1,0,0,0],[0.56,1,0,0,0],[0.67,1,0,0,0],[0.75,0,0,0,0],[0.75,1,0,0,0],[0.78,1,0,0,0],[0.89,1,0,0,0],[1,0,0,0,0],[1,0.25,0,0,0],[1,0.5,0,0,0],[1,0.75,0,0,0],[1,1,0,0,0]];fillColor=#f8cecc;strokeColor=#b85450;" vertex="1" parent="1">
          <mxGeometry x="250" y="130" width="80" height="80" as="geometry" />
        </mxCell>
        <mxCell id="iHH--SFFiVrPq8WFX1FL-14" style="edgeStyle=orthogonalEdgeStyle;rounded=0;orthogonalLoop=1;jettySize=auto;html=1;exitX=0;exitY=0.5;exitDx=0;exitDy=0;entryX=1;entryY=0.5;entryDx=0;entryDy=0;" edge="1" parent="1" source="iHH--SFFiVrPq8WFX1FL-3" target="iHH--SFFiVrPq8WFX1FL-1">
          <mxGeometry relative="1" as="geometry" />
        </mxCell>
        <mxCell id="iHH--SFFiVrPq8WFX1FL-3" value="Instruction Reg" style="rounded=0;whiteSpace=wrap;html=1;fillColor=#d5e8d4;strokeColor=#82b366;" vertex="1" parent="1">
          <mxGeometry x="386" y="140" width="120" height="60" as="geometry" />
        </mxCell>
        <mxCell id="iHH--SFFiVrPq8WFX1FL-13" style="edgeStyle=orthogonalEdgeStyle;rounded=0;orthogonalLoop=1;jettySize=auto;html=1;exitX=0;exitY=0.5;exitDx=0;exitDy=0;entryX=1;entryY=0.5;entryDx=0;entryDy=0;" edge="1" parent="1" source="iHH--SFFiVrPq8WFX1FL-4" target="iHH--SFFiVrPq8WFX1FL-3">
          <mxGeometry relative="1" as="geometry" />
        </mxCell>
        <mxCell id="iHH--SFFiVrPq8WFX1FL-4" value="Program Memory" style="whiteSpace=wrap;html=1;aspect=fixed;fillColor=#e1d5e7;strokeColor=#9673a6;" vertex="1" parent="1">
          <mxGeometry x="565" y="130" width="80" height="80" as="geometry" />
        </mxCell>
        <mxCell id="iHH--SFFiVrPq8WFX1FL-5" value="Arithmetic Unit" style="whiteSpace=wrap;html=1;aspect=fixed;fillColor=#fad7ac;strokeColor=#b46504;" vertex="1" parent="1">
          <mxGeometry x="400" y="266" width="80" height="80" as="geometry" />
        </mxCell>
        <mxCell id="iHH--SFFiVrPq8WFX1FL-6" value="Logic Unit" style="whiteSpace=wrap;html=1;aspect=fixed;fillColor=#fad7ac;strokeColor=#b46504;" vertex="1" parent="1">
          <mxGeometry x="400" y="362" width="80" height="80" as="geometry" />
        </mxCell>
        <mxCell id="iHH--SFFiVrPq8WFX1FL-42" style="edgeStyle=orthogonalEdgeStyle;rounded=0;orthogonalLoop=1;jettySize=auto;html=1;exitX=1;exitY=0.25;exitDx=0;exitDy=0;" edge="1" parent="1" source="iHH--SFFiVrPq8WFX1FL-7">
          <mxGeometry relative="1" as="geometry">
            <mxPoint x="620" y="326.17647058823536" as="targetPoint" />
          </mxGeometry>
        </mxCell>
        <mxCell id="iHH--SFFiVrPq8WFX1FL-43" style="edgeStyle=orthogonalEdgeStyle;rounded=0;orthogonalLoop=1;jettySize=auto;html=1;exitX=1;exitY=0.5;exitDx=0;exitDy=0;" edge="1" parent="1" source="iHH--SFFiVrPq8WFX1FL-7">
          <mxGeometry relative="1" as="geometry">
            <mxPoint x="620" y="346.17647058823536" as="targetPoint" />
          </mxGeometry>
        </mxCell>
        <mxCell id="iHH--SFFiVrPq8WFX1FL-44" style="edgeStyle=orthogonalEdgeStyle;rounded=0;orthogonalLoop=1;jettySize=auto;html=1;exitX=1;exitY=0.75;exitDx=0;exitDy=0;" edge="1" parent="1" source="iHH--SFFiVrPq8WFX1FL-7">
          <mxGeometry relative="1" as="geometry">
            <mxPoint x="620" y="366.17647058823536" as="targetPoint" />
          </mxGeometry>
        </mxCell>
        <mxCell id="iHH--SFFiVrPq8WFX1FL-7" value="Output Buffer" style="whiteSpace=wrap;html=1;aspect=fixed;fillColor=#dae8fc;strokeColor=#6c8ebf;" vertex="1" parent="1">
          <mxGeometry x="508" y="306" width="80" height="80" as="geometry" />
        </mxCell>
        <mxCell id="iHH--SFFiVrPq8WFX1FL-8" value="General Purpose Register" style="rounded=0;whiteSpace=wrap;html=1;rotation=90;fillColor=#fff2cc;strokeColor=#d6b656;" vertex="1" parent="1">
          <mxGeometry x="193.75" y="318.75" width="192.5" height="70" as="geometry" />
        </mxCell>
        <mxCell id="iHH--SFFiVrPq8WFX1FL-39" style="edgeStyle=orthogonalEdgeStyle;rounded=0;orthogonalLoop=1;jettySize=auto;html=1;exitX=1;exitY=0.5;exitDx=0;exitDy=0;entryX=0.5;entryY=1;entryDx=0;entryDy=0;" edge="1" parent="1" source="iHH--SFFiVrPq8WFX1FL-9" target="iHH--SFFiVrPq8WFX1FL-7">
          <mxGeometry relative="1" as="geometry" />
        </mxCell>
        <mxCell id="iHH--SFFiVrPq8WFX1FL-9" value="Data Memory" style="whiteSpace=wrap;html=1;aspect=fixed;fillColor=#e1d5e7;strokeColor=#9673a6;" vertex="1" parent="1">
          <mxGeometry x="250" y="476" width="80" height="80" as="geometry" />
        </mxCell>
        <mxCell id="iHH--SFFiVrPq8WFX1FL-40" style="edgeStyle=orthogonalEdgeStyle;rounded=0;orthogonalLoop=1;jettySize=auto;html=1;exitX=0.5;exitY=1;exitDx=0;exitDy=0;entryX=0;entryY=0.5;entryDx=0;entryDy=0;" edge="1" parent="1" source="iHH--SFFiVrPq8WFX1FL-10" target="iHH--SFFiVrPq8WFX1FL-9">
          <mxGeometry relative="1" as="geometry" />
        </mxCell>
        <mxCell id="iHH--SFFiVrPq8WFX1FL-50" style="edgeStyle=orthogonalEdgeStyle;rounded=0;orthogonalLoop=1;jettySize=auto;html=1;" edge="1" parent="1">
          <mxGeometry relative="1" as="geometry">
            <mxPoint x="130" y="340" as="targetPoint" />
            <mxPoint x="100" y="340" as="sourcePoint" />
          </mxGeometry>
        </mxCell>
        <mxCell id="iHH--SFFiVrPq8WFX1FL-10" value="Input Buffer" style="whiteSpace=wrap;html=1;aspect=fixed;fillColor=#dae8fc;strokeColor=#6c8ebf;" vertex="1" parent="1">
          <mxGeometry x="130" y="275" width="80" height="80" as="geometry" />
        </mxCell>
        <mxCell id="iHH--SFFiVrPq8WFX1FL-51" style="edgeStyle=orthogonalEdgeStyle;rounded=0;orthogonalLoop=1;jettySize=auto;html=1;" edge="1" parent="1">
          <mxGeometry relative="1" as="geometry">
            <mxPoint x="130" y="314.83" as="targetPoint" />
            <mxPoint x="100" y="314.83" as="sourcePoint" />
          </mxGeometry>
        </mxCell>
        <mxCell id="iHH--SFFiVrPq8WFX1FL-52" style="edgeStyle=orthogonalEdgeStyle;rounded=0;orthogonalLoop=1;jettySize=auto;html=1;" edge="1" parent="1">
          <mxGeometry relative="1" as="geometry">
            <mxPoint x="130" y="290" as="targetPoint" />
            <mxPoint x="100" y="290" as="sourcePoint" />
          </mxGeometry>
        </mxCell>
        <mxCell id="iHH--SFFiVrPq8WFX1FL-53" value="" style="endArrow=classic;startArrow=classic;html=1;rounded=0;entryX=0;entryY=0.5;entryDx=0;entryDy=0;exitX=0.75;exitY=0;exitDx=0;exitDy=0;" edge="1" parent="1" source="iHH--SFFiVrPq8WFX1FL-8" target="iHH--SFFiVrPq8WFX1FL-6">
          <mxGeometry width="50" height="50" relative="1" as="geometry">
            <mxPoint x="250" y="420" as="sourcePoint" />
            <mxPoint x="300" y="370" as="targetPoint" />
          </mxGeometry>
        </mxCell>
        <mxCell id="iHH--SFFiVrPq8WFX1FL-54" value="" style="endArrow=classic;startArrow=classic;html=1;rounded=0;entryX=0;entryY=0.5;entryDx=0;entryDy=0;exitX=0.75;exitY=0;exitDx=0;exitDy=0;" edge="1" parent="1">
          <mxGeometry width="50" height="50" relative="1" as="geometry">
            <mxPoint x="325" y="303" as="sourcePoint" />
            <mxPoint x="400" y="303" as="targetPoint" />
          </mxGeometry>
        </mxCell>
        <mxCell id="iHH--SFFiVrPq8WFX1FL-55" value="" style="endArrow=classic;startArrow=classic;html=1;rounded=0;" edge="1" parent="1" target="iHH--SFFiVrPq8WFX1FL-9">
          <mxGeometry width="50" height="50" relative="1" as="geometry">
            <mxPoint x="290" y="450" as="sourcePoint" />
            <mxPoint x="340" y="400" as="targetPoint" />
          </mxGeometry>
        </mxCell>
        <mxCell id="iHH--SFFiVrPq8WFX1FL-59" value="" style="swimlane;startSize=0;fillColor=none;strokeColor=default;fillStyle=hatch;strokeWidth=2;" vertex="1" parent="1">
          <mxGeometry x="100" y="110" width="560" height="460" as="geometry">
            <mxRectangle x="100" y="110" width="50" height="40" as="alternateBounds" />
          </mxGeometry>
        </mxCell>
      </root>
    </mxGraphModel>
  </diagram>
</mxfile>
